<svg width="173" height="65" viewBox="0 0 173 65" fill="none" xmlns="http://www.w3.org/2000/svg">
<path d="M29.4805 0.577148L55.4619 15.5771L55.4492 15.5986L50.7139 17.4551L28.4805 4.61914L4.5 18.4639V46.1543L28.4805 59.999L50.0811 47.5283L55.3779 49.0898L29.4805 64.042L28.4805 64.6191L27.4805 64.042L1.5 49.042L0.5 48.4639V16.1553L1.5 15.5771L27.4805 0.577148L28.4805 0L29.4805 0.577148Z" fill="black"/>
<path d="M29.4805 0.577148L55.4619 15.5771L55.4492 15.5986L50.7139 17.4551L28.4805 4.61914L4.5 18.4639V46.1543L28.4805 59.999L50.0811 47.5283L55.3779 49.0898L29.4805 64.042L28.4805 64.6191L27.4805 64.042L1.5 49.042L0.5 48.4639V16.1553L1.5 15.5771L27.4805 0.577148L28.4805 0L29.4805 0.577148Z" fill="black"/>
<path d="M29.4805 0.577148L55.4619 15.5771L55.4492 15.5986L50.7139 17.4551L28.4805 4.61914L4.5 18.4639V46.1543L28.4805 59.999L50.0811 47.5283L55.3779 49.0898L29.4805 64.042L28.4805 64.6191L27.4805 64.042L1.5 49.042L0.5 48.4639V16.1553L1.5 15.5771L27.4805 0.577148L28.4805 0L29.4805 0.577148Z" fill="#006191"/>
<path d="M28.9805 11.4434L46.0205 21.2812L43.2881 22.0137L28.4805 13.4639L12.1602 22.8867V41.7314L28.4805 51.1543L43.5928 42.4287L46.2139 43.2246L28.9805 53.1758L28.4805 53.4639L27.9805 53.1758L10.6602 43.1758L10.1602 42.8867V21.7324L10.6602 21.4434L27.9805 11.4434L28.4805 11.1553L28.9805 11.4434Z" fill="black"/>
<path d="M28.9805 11.4434L46.0205 21.2812L43.2881 22.0137L28.4805 13.4639L12.1602 22.8867V41.7314L28.4805 51.1543L43.5928 42.4287L46.2139 43.2246L28.9805 53.1758L28.4805 53.4639L27.9805 53.1758L10.6602 43.1758L10.1602 42.8867V21.7324L10.6602 21.4434L27.9805 11.4434L28.4805 11.1553L28.9805 11.4434Z" fill="black"/>
<path d="M28.9805 11.4434L46.0205 21.2812L43.2881 22.0137L28.4805 13.4639L12.1602 22.8867V41.7314L28.4805 51.1543L43.5928 42.4287L46.2139 43.2246L28.9805 53.1758L28.4805 53.4639L27.9805 53.1758L10.6602 43.1758L10.1602 42.8867V21.7324L10.6602 21.4434L27.9805 11.4434L28.4805 11.1553L28.9805 11.4434Z" fill="#FFB600"/>
<path d="M25.1475 23.9763V27.3097" stroke="#006191" stroke-width="1.8" stroke-linecap="round" stroke-linejoin="round"/>
<path d="M31.8135 23.9763V27.3097" stroke="#006191" stroke-width="1.8" stroke-linecap="round" stroke-linejoin="round"/>
<path d="M35.9805 36.4762V27.3095C35.9805 26.8675 35.8049 26.4435 35.4923 26.131C35.1798 25.8184 34.7558 25.6428 34.3138 25.6428H22.6471C22.2051 25.6428 21.7812 25.8184 21.4686 26.131C21.1561 26.4435 20.9805 26.8675 20.9805 27.3095V38.9762C20.9805 39.4182 21.1561 39.8421 21.4686 40.1547C21.7812 40.4672 22.2051 40.6428 22.6471 40.6428H31.8138L35.9805 36.4762Z" stroke="#006191" stroke-width="1.8" stroke-linecap="round" stroke-linejoin="round"/>
<path d="M20.9805 30.6428H35.9805" stroke="#006191" stroke-width="1.8" stroke-linecap="round" stroke-linejoin="round"/>
<path d="M30.9805 40.6428V37.3095C30.9805 36.8675 31.1561 36.4435 31.4686 36.131C31.7812 35.8184 32.2051 35.6428 32.6471 35.6428H35.9805" stroke="#006191" stroke-width="1.8" stroke-linecap="round" stroke-linejoin="round"/>
<path d="M67.7064 26.1V40H65.4264V30.48L61.1864 40H59.6064L55.3464 30.48V40H53.0664V26.1H55.5264L60.4064 37L65.2664 26.1H67.7064ZM80.8031 34.22C80.8031 34.6333 80.7765 35.0067 80.7231 35.34H72.3031C72.3698 36.22 72.6965 36.9267 73.2831 37.46C73.8698 37.9933 74.5898 38.26 75.4431 38.26C76.6698 38.26 77.5365 37.7467 78.0431 36.72H80.5031C80.1698 37.7333 79.5631 38.5667 78.6831 39.22C77.8165 39.86 76.7365 40.18 75.4431 40.18C74.3898 40.18 73.4431 39.9467 72.6031 39.48C71.7765 39 71.1231 38.3333 70.6431 37.48C70.1765 36.6133 69.9431 35.6133 69.9431 34.48C69.9431 33.3467 70.1698 32.3533 70.6231 31.5C71.0898 30.6333 71.7365 29.9667 72.5631 29.5C73.4031 29.0333 74.3631 28.8 75.4431 28.8C76.4831 28.8 77.4098 29.0267 78.2231 29.48C79.0365 29.9333 79.6698 30.5733 80.1231 31.4C80.5765 32.2133 80.8031 33.1533 80.8031 34.22ZM78.4231 33.5C78.4098 32.66 78.1098 31.9867 77.5231 31.48C76.9365 30.9733 76.2098 30.72 75.3431 30.72C74.5565 30.72 73.8831 30.9733 73.3231 31.48C72.7631 31.9733 72.4298 32.6467 72.3231 33.5H78.4231ZM85.3269 30.58C85.6602 30.02 86.1002 29.5867 86.6469 29.28C87.2069 28.96 87.8669 28.8 88.6269 28.8V31.16H88.0469C87.1535 31.16 86.4735 31.3867 86.0069 31.84C85.5535 32.2933 85.3269 33.08 85.3269 34.2V40H83.0469V28.98H85.3269V30.58ZM91.8827 27.52C91.4693 27.52 91.1227 27.38 90.8427 27.1C90.5627 26.82 90.4227 26.4733 90.4227 26.06C90.4227 25.6467 90.5627 25.3 90.8427 25.02C91.1227 24.74 91.4693 24.6 91.8827 24.6C92.2827 24.6 92.6227 24.74 92.9027 25.02C93.1827 25.3 93.3227 25.6467 93.3227 26.06C93.3227 26.4733 93.1827 26.82 92.9027 27.1C92.6227 27.38 92.2827 27.52 91.8827 27.52ZM93.0027 28.98V40H90.7227V28.98H93.0027ZM98.2761 25.2V40H95.9961V25.2H98.2761Z" fill="#006191"/>
<path d="M108.745 27.94V32.02H113.545V33.88H108.745V38.14H114.145V40H106.465V26.08H114.145V27.94H108.745ZM121.213 37.96L124.333 28.98H126.753L122.553 40H119.833L115.653 28.98H118.093L121.213 37.96ZM138.577 34.22C138.577 34.6333 138.55 35.0067 138.497 35.34H130.077C130.143 36.22 130.47 36.9267 131.057 37.46C131.643 37.9933 132.363 38.26 133.217 38.26C134.443 38.26 135.31 37.7467 135.817 36.72H138.277C137.943 37.7333 137.337 38.5667 136.457 39.22C135.59 39.86 134.51 40.18 133.217 40.18C132.163 40.18 131.217 39.9467 130.377 39.48C129.55 39 128.897 38.3333 128.417 37.48C127.95 36.6133 127.717 35.6133 127.717 34.48C127.717 33.3467 127.943 32.3533 128.397 31.5C128.863 30.6333 129.51 29.9667 130.337 29.5C131.177 29.0333 132.137 28.8 133.217 28.8C134.257 28.8 135.183 29.0267 135.997 29.48C136.81 29.9333 137.443 30.5733 137.897 31.4C138.35 32.2133 138.577 33.1533 138.577 34.22ZM136.197 33.5C136.183 32.66 135.883 31.9867 135.297 31.48C134.71 30.9733 133.983 30.72 133.117 30.72C132.33 30.72 131.657 30.9733 131.097 31.48C130.537 31.9733 130.203 32.6467 130.097 33.5H136.197ZM146.38 28.8C147.247 28.8 148.02 28.98 148.7 29.34C149.394 29.7 149.934 30.2333 150.32 30.94C150.707 31.6467 150.9 32.5 150.9 33.5V40H148.64V33.84C148.64 32.8533 148.394 32.1 147.9 31.58C147.407 31.0467 146.734 30.78 145.88 30.78C145.027 30.78 144.347 31.0467 143.84 31.58C143.347 32.1 143.1 32.8533 143.1 33.84V40H140.82V28.98H143.1V30.24C143.474 29.7867 143.947 29.4333 144.52 29.18C145.107 28.9267 145.727 28.8 146.38 28.8ZM156.469 30.84V36.94C156.469 37.3533 156.562 37.6533 156.749 37.84C156.949 38.0133 157.282 38.1 157.749 38.1H159.149V40H157.349C156.322 40 155.535 39.76 154.989 39.28C154.442 38.8 154.169 38.02 154.169 36.94V30.84H152.869V28.98H154.169V26.24H156.469V28.98H159.149V30.84H156.469ZM165.25 40.18C164.383 40.18 163.603 40.0267 162.91 39.72C162.23 39.4 161.69 38.9733 161.29 38.44C160.89 37.8933 160.677 37.2867 160.65 36.62H163.01C163.05 37.0867 163.27 37.48 163.67 37.8C164.083 38.1067 164.597 38.26 165.21 38.26C165.85 38.26 166.343 38.14 166.69 37.9C167.05 37.6467 167.23 37.3267 167.23 36.94C167.23 36.5267 167.03 36.22 166.63 36.02C166.243 35.82 165.623 35.6 164.77 35.36C163.943 35.1333 163.27 34.9133 162.75 34.7C162.23 34.4867 161.777 34.16 161.39 33.72C161.017 33.28 160.83 32.7 160.83 31.98C160.83 31.3933 161.003 30.86 161.35 30.38C161.697 29.8867 162.19 29.5 162.83 29.22C163.483 28.94 164.23 28.8 165.07 28.8C166.323 28.8 167.33 29.12 168.09 29.76C168.863 30.3867 169.277 31.2467 169.33 32.34H167.05C167.01 31.8467 166.81 31.4533 166.45 31.16C166.09 30.8667 165.603 30.72 164.99 30.72C164.39 30.72 163.93 30.8333 163.61 31.06C163.29 31.2867 163.13 31.5867 163.13 31.96C163.13 32.2533 163.237 32.5 163.45 32.7C163.663 32.9 163.923 33.06 164.23 33.18C164.537 33.2867 164.99 33.4267 165.59 33.6C166.39 33.8133 167.043 34.0333 167.55 34.26C168.07 34.4733 168.517 34.7933 168.89 35.22C169.263 35.6467 169.457 36.2133 169.47 36.92C169.47 37.5467 169.297 38.1067 168.95 38.6C168.603 39.0933 168.11 39.48 167.47 39.76C166.843 40.04 166.103 40.18 165.25 40.18Z" fill="#FFB600"/>
<circle cx="84.4004" cy="25.8999" r="1.5" fill="#FFB600"/>
</svg>
