<svg width="18" height="20" viewBox="0 0 18 20" fill="none" xmlns="http://www.w3.org/2000/svg">
<path d="M14.6256 19.5H14.625H3.375C2.88779 19.5 2.48452 19.3344 2.13785 18.992C1.79142 18.6499 1.62565 18.254 1.625 17.7774V3.89583C1.625 3.30903 1.1493 2.83333 0.5625 2.83333C0.527982 2.83333 0.5 2.80535 0.5 2.77083V2.22222C0.5 1.88471 0.773604 1.61111 1.11111 1.61111H5.06944C5.65241 1.61111 6.125 1.13852 6.125 0.555556C6.125 0.524873 6.14987 0.5 6.18056 0.5H11.8194C11.8501 0.5 11.875 0.524873 11.875 0.555556C11.875 1.13852 12.3476 1.61111 12.9306 1.61111H16.8889C17.2264 1.61111 17.5 1.88471 17.5 2.22222V2.77083C17.5 2.80535 17.472 2.83333 17.4375 2.83333C16.8507 2.83333 16.375 3.30903 16.375 3.89583V17.7778C16.375 18.2534 16.2097 18.6493 15.863 18.9923C15.5165 19.3351 15.1133 19.5006 14.6256 19.5ZM5.125 14.4306C5.125 15.328 5.85254 16.0556 6.75 16.0556C7.64746 16.0556 8.375 15.328 8.375 14.4306V6.68056C8.375 5.78309 7.64746 5.05556 6.75 5.05556C5.85254 5.05556 5.125 5.78309 5.125 6.68056V14.4306ZM9.625 14.4306C9.625 15.328 10.3525 16.0556 11.25 16.0556C12.1475 16.0556 12.875 15.328 12.875 14.4306V6.68056C12.875 5.78309 12.1475 5.05556 11.25 5.05556C10.3525 5.05556 9.625 5.78309 9.625 6.68056V14.4306Z" fill="#E60000" stroke="#E60000"/>
</svg>
