<svg width="20" height="21" viewBox="0 0 20 21" fill="none" xmlns="http://www.w3.org/2000/svg">
<path id="Vector" d="M13.3146 2.28058e-05C12.436 -0.00222898 11.5656 0.162292 10.7538 0.484079C9.94201 0.805866 9.20482 1.27854 8.58486 1.87479L0.393009 9.72216C0.141704 9.96239 0.00033493 10.2884 5.94364e-07 10.6285C-0.000333741 10.9685 0.140394 11.2948 0.391226 11.5355C0.642058 11.7761 0.982447 11.9115 1.33751 11.9119C1.69258 11.9122 2.03323 11.7774 2.28453 11.5372L10.48 3.68638C11.2423 3.01511 12.2461 2.65195 13.2815 2.67278C14.3168 2.69361 15.3038 3.09681 16.036 3.79815C16.7683 4.49948 17.1893 5.4447 17.2111 6.43633C17.2328 7.42795 16.8536 8.38927 16.1527 9.11944L6.69869 18.174C6.44522 18.4002 6.10998 18.5233 5.76358 18.5175C5.41719 18.5116 5.08669 18.3772 4.84171 18.1426C4.59673 17.908 4.45641 17.5914 4.45029 17.2597C4.44418 16.9279 4.57276 16.6068 4.80894 16.3641L14.263 7.30955C14.5143 7.0691 14.6556 6.74287 14.6558 6.40266C14.6559 6.06244 14.515 5.73609 14.2639 5.4954C14.0128 5.25472 13.6722 5.11941 13.317 5.11925C12.9618 5.11909 12.621 5.25409 12.3697 5.49455L2.91385 14.5525C2.21296 15.2827 1.83378 16.244 1.85553 17.2356C1.87728 18.2272 2.29827 19.1724 3.03056 19.8738C3.76284 20.5751 4.74977 20.9783 5.78515 20.9992C6.82053 21.02 7.82426 20.6568 8.58665 19.9856L18.0407 10.931C18.6637 10.3378 19.1576 9.63219 19.4939 8.85493C19.8303 8.07768 20.0023 7.24425 20 6.40291C19.9981 4.70531 19.2931 3.07776 18.0398 1.87738C16.7864 0.676999 15.0871 0.00183068 13.3146 2.28058e-05Z" fill="#4430BF"/>
</svg>
