<svg width="21" height="20" viewBox="0 0 21 20" fill="none" xmlns="http://www.w3.org/2000/svg">
<g id="Group">
<g id="Vector">
<mask id="path-1-inside-1_3108_49223" fill="white">
<path d="M4.02929 4.70312H2.85286C2.22884 4.70313 1.63038 4.95101 1.18914 5.39226C0.74789 5.83351 0.5 6.43197 0.5 7.05598V17.6438C0.5 18.2679 0.74789 18.8663 1.18914 19.3076C1.63038 19.7488 2.22884 19.9967 2.85286 19.9967H13.4407C14.0647 19.9967 14.6632 19.7488 15.1044 19.3076C15.5457 18.8663 15.7936 18.2679 15.7936 17.6438V16.4674"/>
</mask>
<path d="M2.85286 4.70312V3.70312V4.70312ZM0.5 7.05598H-0.5H0.5ZM0.5 17.6438H-0.5H0.5ZM4.02929 3.70312H2.85286V5.70312H4.02929V3.70312ZM2.85286 3.70312C1.96362 3.70312 1.11081 4.05637 0.482029 4.68515L1.89624 6.09937C2.14995 5.84566 2.49406 5.70312 2.85286 5.70312V3.70312ZM0.482029 4.68515C-0.146754 5.31394 -0.5 6.16675 -0.5 7.05598H1.5C1.5 6.69718 1.64253 6.35308 1.89624 6.09937L0.482029 4.68515ZM-0.5 7.05598V17.6438H1.5V7.05598H-0.5ZM-0.5 17.6438C-0.5 18.5331 -0.146754 19.3859 0.482029 20.0147L1.89624 18.6005C1.64253 18.3467 1.5 18.0026 1.5 17.6438H-0.5ZM0.482029 20.0147C1.11081 20.6435 1.96362 20.9967 2.85286 20.9967V18.9967C2.49406 18.9967 2.14995 18.8542 1.89624 18.6005L0.482029 20.0147ZM2.85286 20.9967H13.4407V18.9967H2.85286V20.9967ZM13.4407 20.9967C14.3299 20.9967 15.1828 20.6435 15.8115 20.0147L14.3973 18.6005C14.1436 18.8542 13.7995 18.9967 13.4407 18.9967V20.9967ZM15.8115 20.0147C16.4403 19.3859 16.7936 18.5331 16.7936 17.6438H14.7936C14.7936 18.0026 14.651 18.3467 14.3973 18.6005L15.8115 20.0147ZM16.7936 17.6438V16.4674H14.7936V17.6438H16.7936Z" fill="#636363" mask="url(#path-1-inside-1_3108_49223)"/>
</g>
<path id="Vector_2" d="M19.7765 4.21762C20.2398 3.75429 20.5001 3.12588 20.5001 2.47063C20.5001 1.81538 20.2398 1.18696 19.7765 0.72363C19.3131 0.260297 18.6847 8.45587e-09 18.0295 0C17.3742 -8.45587e-09 16.7458 0.260297 16.2825 0.72363L7.11636 9.85705C6.64677 10.325 6.38281 10.9606 6.38281 11.6235C6.38281 13.0008 7.4993 14.1173 8.87655 14.1173C9.53947 14.1173 10.1751 13.8533 10.643 13.3837L19.7765 4.21762ZM14.6178 2.35298L18.1471 5.88227L14.6178 2.35298Z" fill="black"/>
</g>
</svg>
