<svg width="24" height="24" viewBox="0 0 24 24" fill="none" xmlns="http://www.w3.org/2000/svg">
<path fill-rule="evenodd" clip-rule="evenodd" d="M7.08642 13.069L5.384 11.707C5.13517 12.4253 5 13.1966 5 13.9994C5 17.8654 8.13401 20.9994 12 20.9994C15.866 20.9994 19 17.8654 19 13.9994C19 13.1966 18.8648 12.4253 18.616 11.707L16.9136 13.069C16.9703 13.3705 17 13.6815 17 13.9994C17 16.7609 14.7614 18.9994 12 18.9994C9.23858 18.9994 7 16.7609 7 13.9994C7 13.6815 7.02968 13.3705 7.08642 13.069Z" fill="#4430BF"/>
<path d="M12 13L11.3753 13.7809L12 14.2806L12.6247 13.7809L12 13ZM13 4C13 3.44772 12.5523 3 12 3C11.4477 3 11 3.44771 11 4L13 4ZM6.37531 9.78087L11.3753 13.7809L12.6247 12.2191L7.6247 8.21913L6.37531 9.78087ZM12.6247 13.7809L17.6247 9.78087L16.3753 8.21913L11.3753 12.2191L12.6247 13.7809ZM13 13L13 4L11 4L11 13L13 13Z" fill="#4430BF"/>
</svg>
