<svg width="100" height="100" viewBox="0 0 100 100" fill="none" xmlns="http://www.w3.org/2000/svg">
<g filter="url(#filter0_ii_913_11611)">
<path fill-rule="evenodd" clip-rule="evenodd" d="M38.8937 54.1667H25C18.0965 54.1667 12.5 48.5702 12.5 41.6667C12.5 34.7631 18.0965 29.1667 25 29.1667H27.9807C28.7318 29.1667 29.1074 29.1667 29.3695 28.9688C29.6317 28.771 29.7421 28.3837 29.9628 27.6093C32.45 18.8866 40.4791 12.5 50 12.5C59.5209 12.5 67.55 18.8866 70.0372 27.6093C70.2579 28.3837 70.3683 28.771 70.6305 28.9688C70.8926 29.1667 71.2682 29.1667 72.0193 29.1667H83.5784C85.7442 29.1667 87.5 30.9225 87.5 33.0882V50.2451C87.5 52.4109 85.7442 54.1667 83.5784 54.1667H61.1063L51.3865 44.4469L50 43.0604L48.6135 44.4469L38.8937 54.1667ZM44.4396 54.1667H48.0392V50.5671L44.4396 54.1667ZM51.9608 54.1667H55.5604L51.9608 50.5671V54.1667Z" fill="#5291CD"/>
</g>
<path opacity="0.4" d="M50.0004 50L48.6139 48.6135L50.0004 47.2271L51.3869 48.6135L50.0004 50ZM51.9612 87.5C51.9612 88.5829 51.0833 89.4608 50.0004 89.4608C48.9175 89.4608 48.0396 88.5829 48.0396 87.5H51.9612ZM31.9473 65.2802L48.6139 48.6135L51.3869 51.3865L34.7202 68.0531L31.9473 65.2802ZM51.3869 48.6135L68.0535 65.2802L65.2806 68.0531L48.6139 51.3865L51.3869 48.6135ZM51.9612 50V87.5H48.0396V50H51.9612Z" fill="#5291CD"/>
<defs>
<filter id="filter0_ii_913_11611" x="12.5" y="10.5392" width="75" height="45.5881" filterUnits="userSpaceOnUse" color-interpolation-filters="sRGB">
<feFlood flood-opacity="0" result="BackgroundImageFix"/>
<feBlend mode="normal" in="SourceGraphic" in2="BackgroundImageFix" result="shape"/>
<feColorMatrix in="SourceAlpha" type="matrix" values="0 0 0 0 0 0 0 0 0 0 0 0 0 0 0 0 0 0 127 0" result="hardAlpha"/>
<feOffset dy="-1.96078"/>
<feGaussianBlur stdDeviation="1.96078"/>
<feComposite in2="hardAlpha" operator="arithmetic" k2="-1" k3="1"/>
<feColorMatrix type="matrix" values="0 0 0 0 0 0 0 0 0 0 0 0 0 0 0 0 0 0 0.25 0"/>
<feBlend mode="normal" in2="shape" result="effect1_innerShadow_913_11611"/>
<feColorMatrix in="SourceAlpha" type="matrix" values="0 0 0 0 0 0 0 0 0 0 0 0 0 0 0 0 0 0 127 0" result="hardAlpha"/>
<feOffset dy="1.96078"/>
<feGaussianBlur stdDeviation="1.96078"/>
<feComposite in2="hardAlpha" operator="arithmetic" k2="-1" k3="1"/>
<feColorMatrix type="matrix" values="0 0 0 0 1 0 0 0 0 1 0 0 0 0 1 0 0 0 0.25 0"/>
<feBlend mode="normal" in2="effect1_innerShadow_913_11611" result="effect2_innerShadow_913_11611"/>
</filter>
</defs>
</svg>
