<svg width="25" height="26" viewBox="0 0 25 26" fill="none" xmlns="http://www.w3.org/2000/svg">
<g clip-path="url(#clip0_913_11616)">
<path d="M16.841 0.500027C15.785 0.497346 14.7389 0.693205 13.7632 1.07629C12.7874 1.45937 11.9014 2.02207 11.1563 2.73188L1.31026 12.074C1.0082 12.36 0.838293 12.7481 0.837891 13.1529C0.83749 13.5578 1.00664 13.9462 1.30812 14.2327C1.6096 14.5192 2.01871 14.6804 2.44547 14.6808C2.87223 14.6812 3.28168 14.5207 3.58372 14.2347L13.434 4.88854C14.3503 4.08941 15.5567 3.65709 16.8012 3.68188C18.0456 3.70667 19.2318 4.18667 20.1119 5.02161C20.9921 5.85653 21.4981 6.98179 21.5242 8.1623C21.5504 9.3428 21.0946 10.4872 20.2522 11.3564L8.8892 22.1357C8.58455 22.405 8.18161 22.5515 7.76527 22.5446C7.34894 22.5376 6.9517 22.3776 6.65725 22.0983C6.36281 21.819 6.19415 21.4422 6.1868 21.0472C6.17945 20.6523 6.334 20.27 6.61787 19.9811L17.981 9.20185C18.283 8.91559 18.4528 8.52723 18.453 8.12221C18.4532 7.71718 18.2838 7.32867 17.982 7.04214C17.6802 6.75562 17.2709 6.59454 16.8439 6.59435C16.4169 6.59416 16.0073 6.75488 15.7053 7.04113L4.34012 17.8244C3.4977 18.6937 3.04195 19.8381 3.0681 21.0186C3.09423 22.199 3.60023 23.3243 4.48039 24.1592C5.36054 24.9942 6.54674 25.4742 7.79119 25.4989C9.03564 25.5238 10.242 25.0914 11.1584 24.2923L22.5215 13.5132C23.2702 12.8069 23.8639 11.9669 24.2681 11.0416C24.6723 10.1163 24.879 9.12412 24.8764 8.12251C24.874 6.10156 24.0267 4.164 22.5203 2.73498C21.0139 1.30595 18.9714 0.50218 16.841 0.500027Z" fill="#5291CD"/>
</g>
<defs>
<clipPath id="clip0_913_11616">
<rect width="25" height="26" fill="white"/>
</clipPath>
</defs>
</svg>
