<svg width="60" height="60" viewBox="0 0 78 78" fill="none" xmlns="http://www.w3.org/2000/svg">
<g filter="url(#filter0_ii_678_25813)">
<path fill-rule="evenodd" clip-rule="evenodd" d="M41.25 6.5V27.25L41.25 27.3044V27.3045C41.2499 27.7285 41.2498 28.1406 41.2955 28.4805C41.347 28.8637 41.4726 29.301 41.8358 29.6642C42.199 30.0274 42.6363 30.153 43.0195 30.2045C43.3594 30.2502 43.7715 30.2501 44.1956 30.25L44.25 30.25H65V52C65 61.1924 65 65.7886 62.1443 68.6443C59.2886 71.5 54.6924 71.5 45.5 71.5H32.5C23.3076 71.5 18.7114 71.5 15.8557 68.6443C13 65.7886 13 61.1924 13 52V26C13 16.8076 13 12.2114 15.8557 9.35571C18.7114 6.5 23.3076 6.5 32.5 6.5H41.25ZM43.25 6.5V27.25C43.25 27.7497 43.2521 28.0238 43.2777 28.214L43.2787 28.2213L43.286 28.2223C43.4762 28.2479 43.7503 28.25 44.25 28.25H65V28.1348C65 25.4779 65 24.1495 64.5052 22.9549C64.0104 21.7604 63.0711 20.8211 61.1924 18.9424L61.1924 18.9424L52.5576 10.3076C50.6789 8.42891 49.7396 7.48957 48.5451 6.99478C47.3505 6.5 46.0221 6.5 43.3652 6.5H43.25ZM28.25 42.25C28.25 41.6977 28.6977 41.25 29.25 41.25H48.75C49.3023 41.25 49.75 41.6977 49.75 42.25C49.75 42.8023 49.3023 43.25 48.75 43.25H29.25C28.6977 43.25 28.25 42.8023 28.25 42.25ZM29.25 54.25C28.6977 54.25 28.25 54.6977 28.25 55.25C28.25 55.8023 28.6977 56.25 29.25 56.25H42.25C42.8023 56.25 43.25 55.8023 43.25 55.25C43.25 54.6977 42.8023 54.25 42.25 54.25H29.25Z" fill="url(#paint0_linear_678_25813)"/>
</g>
<defs>
<filter id="filter0_ii_678_25813" x="13" y="4.5" width="52" height="69" filterUnits="userSpaceOnUse" color-interpolation-filters="sRGB">
<feFlood flood-opacity="0" result="BackgroundImageFix"/>
<feBlend mode="normal" in="SourceGraphic" in2="BackgroundImageFix" result="shape"/>
<feColorMatrix in="SourceAlpha" type="matrix" values="0 0 0 0 0 0 0 0 0 0 0 0 0 0 0 0 0 0 127 0" result="hardAlpha"/>
<feOffset dy="-2"/>
<feGaussianBlur stdDeviation="2"/>
<feComposite in2="hardAlpha" operator="arithmetic" k2="-1" k3="1"/>
<feColorMatrix type="matrix" values="0 0 0 0 0 0 0 0 0 0 0 0 0 0 0 0 0 0 0.25 0"/>
<feBlend mode="normal" in2="shape" result="effect1_innerShadow_678_25813"/>
<feColorMatrix in="SourceAlpha" type="matrix" values="0 0 0 0 0 0 0 0 0 0 0 0 0 0 0 0 0 0 127 0" result="hardAlpha"/>
<feOffset dy="2"/>
<feGaussianBlur stdDeviation="2"/>
<feComposite in2="hardAlpha" operator="arithmetic" k2="-1" k3="1"/>
<feColorMatrix type="matrix" values="0 0 0 0 1 0 0 0 0 1 0 0 0 0 1 0 0 0 0.25 0"/>
<feBlend mode="normal" in2="effect1_innerShadow_678_25813" result="effect2_innerShadow_678_25813"/>
</filter>
<linearGradient id="paint0_linear_678_25813" x1="39" y1="6.5" x2="39" y2="71.5" gradientUnits="userSpaceOnUse">
<stop stop-color="#988AFF"/>
<stop offset="1" stop-color="#5945ED"/>
</linearGradient>
</defs>
</svg>
