<svg width="60" height="60" viewBox="0 0 60 60" fill="none" xmlns="http://www.w3.org/2000/svg">
<g filter="url(#filter0_ii_913_11621)">
<path fill-rule="evenodd" clip-rule="evenodd" d="M31.7308 5V20.9615V21.0034C31.7307 21.3295 31.7306 21.6466 31.7658 21.9081C31.8054 22.2028 31.902 22.5392 32.1814 22.8186C32.4608 23.098 32.7972 23.1946 33.0919 23.2342C33.3534 23.2694 33.6704 23.2693 33.9966 23.2692H34.0385H50V40C50 47.0711 50 50.6066 47.8033 52.8033C45.6066 55 42.0711 55 35 55H25C17.9289 55 14.3934 55 12.1967 52.8033C10 50.6066 10 47.0711 10 40V20C10 12.9289 10 9.39338 12.1967 7.1967C14.3934 5 17.9289 5 25 5H31.7308ZM33.2692 5V20.9615C33.2692 21.3459 33.2708 21.5568 33.2905 21.7031L33.2913 21.7087L33.2969 21.7095C33.4432 21.7292 33.6541 21.7308 34.0385 21.7308H50V21.6422C50 19.5984 50 18.5765 49.6194 17.6576C49.2388 16.7388 48.5162 16.0162 47.0711 14.5711L40.4289 7.92892C38.9838 6.48378 38.2612 5.76121 37.3424 5.3806C36.4235 5 35.4016 5 33.3578 5H33.2692ZM21.7308 32.5C21.7308 32.0752 22.0752 31.7308 22.5 31.7308H37.5C37.9248 31.7308 38.2692 32.0752 38.2692 32.5C38.2692 32.9248 37.9248 33.2692 37.5 33.2692H22.5C22.0752 33.2692 21.7308 32.9248 21.7308 32.5ZM22.5 41.7308C22.0752 41.7308 21.7308 42.0752 21.7308 42.5C21.7308 42.9248 22.0752 43.2692 22.5 43.2692H32.5C32.9248 43.2692 33.2692 42.9248 33.2692 42.5C33.2692 42.0752 32.9248 41.7308 32.5 41.7308H22.5Z" fill="#5291CD"/>
</g>
<defs>
<filter id="filter0_ii_913_11621" x="10" y="3.46154" width="40" height="53.0769" filterUnits="userSpaceOnUse" color-interpolation-filters="sRGB">
<feFlood flood-opacity="0" result="BackgroundImageFix"/>
<feBlend mode="normal" in="SourceGraphic" in2="BackgroundImageFix" result="shape"/>
<feColorMatrix in="SourceAlpha" type="matrix" values="0 0 0 0 0 0 0 0 0 0 0 0 0 0 0 0 0 0 127 0" result="hardAlpha"/>
<feOffset dy="-1.53846"/>
<feGaussianBlur stdDeviation="1.53846"/>
<feComposite in2="hardAlpha" operator="arithmetic" k2="-1" k3="1"/>
<feColorMatrix type="matrix" values="0 0 0 0 0 0 0 0 0 0 0 0 0 0 0 0 0 0 0.25 0"/>
<feBlend mode="normal" in2="shape" result="effect1_innerShadow_913_11621"/>
<feColorMatrix in="SourceAlpha" type="matrix" values="0 0 0 0 0 0 0 0 0 0 0 0 0 0 0 0 0 0 127 0" result="hardAlpha"/>
<feOffset dy="1.53846"/>
<feGaussianBlur stdDeviation="1.53846"/>
<feComposite in2="hardAlpha" operator="arithmetic" k2="-1" k3="1"/>
<feColorMatrix type="matrix" values="0 0 0 0 1 0 0 0 0 1 0 0 0 0 1 0 0 0 0.25 0"/>
<feBlend mode="normal" in2="effect1_innerShadow_913_11621" result="effect2_innerShadow_913_11621"/>
</filter>
</defs>
</svg>
