<svg width="24" height="18" viewBox="0 0 24 18" fill="none" xmlns="http://www.w3.org/2000/svg">
<path d="M11.997 12.1971C13.7643 12.1971 15.1971 10.7643 15.1971 8.99697C15.1971 7.2296 13.7643 5.79688 11.997 5.79688C10.2296 5.79688 8.79688 7.2296 8.79688 8.99697C8.79688 10.7643 10.2296 12.1971 11.997 12.1971Z" fill="black"/>
<path d="M23.9523 8.72746C23.0114 6.29351 21.3779 4.18862 19.2536 2.67296C17.1294 1.15729 14.6077 0.29728 12 0.199219C9.39234 0.29728 6.87056 1.15729 4.74636 2.67296C2.62215 4.18862 0.988616 6.29351 0.047661 8.72746C-0.015887 8.90323 -0.015887 9.09571 0.047661 9.27148C0.988616 11.7054 2.62215 13.8103 4.74636 15.326C6.87056 16.8416 9.39234 17.7017 12 17.7997C14.6077 17.7017 17.1294 16.8416 19.2536 15.326C21.3779 13.8103 23.0114 11.7054 23.9523 9.27148C24.0159 9.09571 24.0159 8.90323 23.9523 8.72746ZM12 14.1996C10.9715 14.1996 9.96611 13.8946 9.11095 13.3232C8.25579 12.7518 7.58928 11.9397 7.19569 10.9895C6.8021 10.0393 6.69912 8.9937 6.89977 7.98497C7.10042 6.97624 7.59569 6.04966 8.32294 5.32241C9.05019 4.59516 9.97677 4.09989 10.9855 3.89924C11.9942 3.69859 13.0398 3.80157 13.99 4.19516C14.9402 4.58875 15.7524 5.25526 16.3238 6.11042C16.8952 6.96558 17.2001 7.97098 17.2001 8.99947C17.198 10.378 16.6495 11.6994 15.6747 12.6742C14.7 13.649 13.3785 14.1975 12 14.1996Z" fill="black"/>
</svg>
