<svg width="20" height="20" viewBox="0 0 67 45" fill="none" xmlns="http://www.w3.org/2000/svg">
<path d="M7.73438 26.7188L5.625 22.5H20.3906L18.7031 18.2812H4.92188L2.8125 14.0625H24.75L23.0625 9.84375H2.41875L0 5.625H10.5469C10.5469 4.13316 11.1395 2.70242 12.1944 1.64752C13.2493 0.592632 14.68 0 16.1719 0H49.9219V11.25H58.3594L66.7969 22.5V36.5625H61.1719C61.1719 38.8003 60.2829 40.9464 58.7006 42.5287C57.1183 44.1111 54.9721 45 52.7344 45C50.4966 45 48.3505 44.1111 46.7682 42.5287C45.1858 40.9464 44.2969 38.8003 44.2969 36.5625H33.0469C33.0469 38.8003 32.1579 40.9464 30.5756 42.5287C28.9933 44.1111 26.8471 45 24.6094 45C22.3716 45 20.2255 44.1111 18.6432 42.5287C17.0608 40.9464 16.1719 38.8003 16.1719 36.5625H10.5469V26.7188H7.73438ZM52.7344 40.7812C53.8533 40.7812 54.9263 40.3368 55.7175 39.5456C56.5086 38.7544 56.9531 37.6814 56.9531 36.5625C56.9531 35.4436 56.5086 34.3706 55.7175 33.5794C54.9263 32.7882 53.8533 32.3438 52.7344 32.3438C51.6155 32.3438 50.5424 32.7882 49.7513 33.5794C48.9601 34.3706 48.5156 35.4436 48.5156 36.5625C48.5156 37.6814 48.9601 38.7544 49.7513 39.5456C50.5424 40.3368 51.6155 40.7812 52.7344 40.7812ZM56.9531 15.4688H49.9219V22.5H62.4656L56.9531 15.4688ZM24.6094 40.7812C25.7283 40.7812 26.8013 40.3368 27.5925 39.5456C28.3837 38.7544 28.8281 37.6814 28.8281 36.5625C28.8281 35.4436 28.3837 34.3706 27.5925 33.5794C26.8013 32.7882 25.7283 32.3438 24.6094 32.3438C23.4905 32.3438 22.4174 32.7882 21.6263 33.5794C20.8351 34.3706 20.3906 35.4436 20.3906 36.5625C20.3906 37.6814 20.8351 38.7544 21.6263 39.5456C22.4174 40.3368 23.4905 40.7812 24.6094 40.7812Z" fill="#86A9D2"/>
</svg>
