<svg width="20" height="20" viewBox="0 0 44 42" fill="none" xmlns="http://www.w3.org/2000/svg">
<path d="M17 39C17 40.6569 15.6569 42 14 42H7.5C5.84315 42 4.5 40.6569 4.5 39V23.0026C4.5 21.8966 3.60343 21 2.49745 21V21C0.628371 21 -0.221738 18.6663 1.20942 17.4641L20.0704 1.62085C21.1861 0.683665 22.8139 0.683664 23.9296 1.62084L42.7906 17.4641C44.2217 18.6663 43.3716 21 41.5026 21V21C40.3966 21 39.5 21.8966 39.5 23.0026V39C39.5 40.6569 38.1569 42 36.5 42H30C28.3431 42 27 40.6569 27 39V32.4C27 30.7431 25.6569 29.4 24 29.4H20C18.3431 29.4 17 30.7431 17 32.4V39Z" fill="#86A9D1"/>
</svg>
