<svg width="24" height="24" viewBox="0 0 24 24" fill="none" xmlns="http://www.w3.org/2000/svg">
<path fill-rule="evenodd" clip-rule="evenodd" d="M8.25 1.5C8.13224 1.49999 8.01613 1.52772 7.91107 1.58093C7.80602 1.63414 7.71497 1.71134 7.6453 1.80628C7.57563 1.90122 7.52929 2.01123 7.51004 2.12741C7.49079 2.24359 7.49917 2.36266 7.5345 2.475L7.6995 3H5.25C5.05109 3 4.86032 3.07902 4.71967 3.21967C4.57902 3.36032 4.5 3.55109 4.5 3.75V21.75C4.5 21.9489 4.57902 22.1397 4.71967 22.2803C4.86032 22.421 5.05109 22.5 5.25 22.5H18.75C18.9489 22.5 19.1397 22.421 19.2803 22.2803C19.421 22.1397 19.5 21.9489 19.5 21.75V3.75C19.5 3.55109 19.421 3.36032 19.2803 3.21967C19.1397 3.07902 18.9489 3 18.75 3H16.302L16.467 2.475C16.5024 2.36254 16.5107 2.24333 16.4914 2.12704C16.4721 2.01074 16.4256 1.90064 16.3558 1.80567C16.2859 1.7107 16.1947 1.63353 16.0894 1.58042C15.9842 1.52731 15.8679 1.49976 15.75 1.5H8.25ZM9.27 3H14.73L14.2605 4.5H9.7395L9.27 3ZM11.781 16.281L17.031 11.031L15.9705 9.969L11.25 14.6895L8.781 12.219L7.719 13.281L10.719 16.281C10.7887 16.3508 10.8714 16.4063 10.9625 16.4441C11.0537 16.4819 11.1513 16.5013 11.25 16.5013C11.3487 16.5013 11.4463 16.4819 11.5375 16.4441C11.6286 16.4063 11.7113 16.3508 11.781 16.281Z" fill="#86A9D1"/>
</svg>
