<svg width="28" height="28" viewBox="0 0 28 28" fill="none" xmlns="http://www.w3.org/2000/svg">
<g clip-path="url(#clip0_3857_4730)">
<path d="M14 1.55554C11.5387 1.55554 9.13271 2.2854 7.08623 3.65281C5.03975 5.02022 3.44472 6.96378 2.50282 9.2377C1.56093 11.5116 1.31449 14.0138 1.79466 16.4278C2.27484 18.8418 3.46005 21.0592 5.20044 22.7995C6.94083 24.5399 9.15822 25.7251 11.5722 26.2053C13.9862 26.6855 16.4883 26.439 18.7623 25.4972C21.0362 24.5553 22.9798 22.9602 24.3472 20.9137C25.7146 18.8673 26.4444 16.4613 26.4444 14C26.4444 10.6995 25.1333 7.53422 22.7995 5.20044C20.4658 2.86665 17.3005 1.55554 14 1.55554ZM18.5733 8.55554H20.2222C20.4285 8.55554 20.6263 8.63749 20.7722 8.78335C20.918 8.92921 21 9.12704 21 9.33332C21 9.5396 20.918 9.73743 20.7722 9.88329C20.6263 10.0292 20.4285 10.1111 20.2222 10.1111H18.8689V10.2589C18.8802 10.8822 18.7684 11.5017 18.5398 12.0817C18.3112 12.6617 17.9703 13.1909 17.5368 13.6389C17.1032 14.0869 16.5855 14.4449 16.0133 14.6924C15.441 14.9399 14.8256 15.072 14.2022 15.0811H12.6467L17.9511 21.35C18.1182 21.547 18.2002 21.8023 18.179 22.0597C18.1579 22.3172 18.0353 22.5557 17.8383 22.7228C17.6413 22.8899 17.386 22.9718 17.1286 22.9507C16.8711 22.9295 16.6326 22.807 16.4655 22.61L9.82333 14.7311C9.70075 14.5873 9.62272 14.4109 9.59879 14.2235C9.57485 14.0361 9.60605 13.8458 9.68856 13.6758C9.77107 13.5058 9.90132 13.3636 10.0634 13.2664C10.2255 13.1693 10.4123 13.1215 10.6011 13.1289H14.2644C15.0037 13.1065 15.7039 12.7918 16.2114 12.2537C16.7188 11.7156 16.992 10.9982 16.9711 10.2589V10.1033H9.9711C9.76482 10.1033 9.56699 10.0214 9.42113 9.87551C9.27527 9.72965 9.19333 9.53182 9.19333 9.32554C9.19333 9.11926 9.27527 8.92143 9.42113 8.77557C9.56699 8.62971 9.76482 8.54776 9.9711 8.54776H16.4422C16.2026 8.19333 15.8808 7.90211 15.5043 7.69896C15.1278 7.49581 14.7078 7.38675 14.28 7.3811H9.91666C9.65881 7.3811 9.41152 7.27867 9.22919 7.09634C9.04687 6.91401 8.94444 6.66672 8.94444 6.40888C8.94444 6.15103 9.04687 5.90374 9.22919 5.72141C9.41152 5.53908 9.65881 5.43665 9.91666 5.43665H20.2222C20.4285 5.43665 20.6263 5.5186 20.7722 5.66446C20.918 5.81032 21 6.00815 21 6.21443C21 6.42071 20.918 6.61854 20.7722 6.7644C20.6263 6.91026 20.4285 6.99221 20.2222 6.99221H17.64C18.0476 7.44933 18.3643 7.97989 18.5733 8.55554Z" fill="#86A9D1"/>
</g>
<defs>
<clipPath id="clip0_3857_4730">
<rect width="28" height="28" fill="white"/>
</clipPath>
</defs>
</svg>
