<svg width="50" height="50" viewBox="0 0 50 50" fill="none" xmlns="http://www.w3.org/2000/svg">
<path d="M36.6212 9.23268L32.4545 7.04518C28.7962 5.12643 26.967 4.16602 25.0003 4.16602C23.0337 4.16602 21.2045 5.12435 17.5462 7.04518L16.8774 7.39727L35.467 18.0202L43.8337 13.8327C42.4878 12.3077 40.317 11.1681 36.6212 9.22852V9.23268ZM45.3087 16.591L36.9795 20.7577V27.0827C36.9795 27.4971 36.8149 27.8945 36.5219 28.1875C36.2288 28.4806 35.8314 28.6452 35.417 28.6452C35.0026 28.6452 34.6052 28.4806 34.3121 28.1875C34.0191 27.8945 33.8545 27.4971 33.8545 27.0827V22.3181L26.5628 25.9639V45.6327C28.0587 45.2598 29.7607 44.3681 32.4545 42.9535L36.6212 40.766C41.1024 38.4139 43.3441 37.2389 44.5899 35.1244C45.8337 33.0119 45.8337 30.3806 45.8337 25.1244V24.8806C45.8337 20.9368 45.8337 18.4702 45.3087 16.591ZM23.4378 45.6327V25.966L4.69199 16.591C4.16699 18.4702 4.16699 20.9369 4.16699 24.8764V25.1202C4.16699 30.3806 4.16699 33.0119 5.41074 35.1244C6.65658 37.2389 8.89824 38.416 13.3795 40.7681L17.5462 42.9535C20.2399 44.3681 21.942 45.2598 23.4378 45.6327ZM6.16699 13.8348L25.0003 23.2514L32.1066 19.6994L13.5941 9.12018L13.3795 9.23268C9.68574 11.1702 7.51283 12.3098 6.16699 13.8369V13.8348Z" fill="#86A9D1"/>
</svg>
