
<svg width="20" height="20" viewBox="0 0 50 50" fill="none" xmlns="http://www.w3.org/2000/svg">
  <path d="M42.954 37.1221L40.7665 41.6034C38.4144 43.8451 37.2394 45.0909 35.1248 46.3346C33.0123 46.3346 30.3811 46.3346 25.1248 46.3346H24.8811C20.9373 46.3346 18.4707 46.3346 16.5915 45.8096L23.9388 45.6332V25.9665L5.19297 16.5915C4.66797 18.4707 4.66797 20.9373 4.66797 24.8769V25.1207C4.66797 30.3811 4.66797 33.0123 5.91172 35.1248C7.15755 37.2394 9.39922 38.4165 13.8805 40.7686L18.0471 42.954C20.7409 44.3686 22.443 45.2603 23.9388 45.6332ZM6.66797 13.8353L25.5013 23.2519L32.6076 19.6998L14.0951 9.12067L13.8805 9.23317C10.1867 11.1707 8.0138 12.3103 6.66797 13.8373V13.8353Z" fill="#B0BCC7" />
</svg>
