 <svg
                                    width="20"
                                    height="20"
                                    viewBox="0 0 50 42"
                                    fill="none"
                                    xmlns="http://www.w3.org/2000/svg"
                                >
                                    <path
                                        d="M22.5 27.3C22.5 26.1402 21.5598 25.2 20.4 25.2H7.5C4.73858 25.2 2.5 27.4386 2.5 30.2V37.8C2.5 38.9139 3.02678 39.9822 3.96447 40.7698C4.90215 41.5575 6.17392 42 7.5 42H42.5C43.8261 42 45.0979 41.5575 46.0355 40.7698C46.9732 39.9822 47.5 38.9139 47.5 37.8V30.2C47.5 27.4386 45.2614 25.2 42.5 25.2H29.6C28.4402 25.2 27.5 26.1402 27.5 27.3C27.5 28.4598 26.5598 29.4 25.4 29.4H24.6C23.4402 29.4 22.5 28.4598 22.5 27.3ZM22.5 21C22.5 22.1598 21.5598 23.1 20.4 23.1H5C2.23858 23.1 0 20.8614 0 18.1V10.5C0 8.19 2.25 6.3 5 6.3H12.9C14.0598 6.3 15 5.3598 15 4.2C15 3.08609 15.5268 2.0178 16.4645 1.23015C17.4021 0.442499 18.6739 0 20 0L30 0C31.3261 0 32.5979 0.442499 33.5355 1.23015C34.4732 2.0178 35 3.08609 35 4.2C35 5.3598 35.9402 6.3 37.1 6.3H45C46.3261 6.3 47.5979 6.7425 48.5355 7.53015C49.4732 8.3178 50 9.38609 50 10.5V18.1C50 20.8614 47.7614 23.1 45 23.1H29.6C28.4402 23.1 27.5 22.1598 27.5 21C27.5 19.8402 26.5598 18.9 25.4 18.9H24.6C23.4402 18.9 22.5 19.8402 22.5 21ZM28.95 6.3C29.5299 6.3 30 5.8299 30 5.25C30 4.6701 29.5299 4.2 28.95 4.2H21.05C20.4701 4.2 20 4.6701 20 5.25C20 5.8299 20.4701 6.3 21.05 6.3H28.95Z"
                                        fill="#86A9D2"
                                    />
                                </svg>